<?xml version="1.0" encoding="utf-8"?>
<!-- Generator: Adobe Illustrator 25.0.0, SVG Export Plug-In . SVG Version: 6.00 Build 0)  -->
<svg version="1.1" id="Layer_1" xmlns="http://www.w3.org/2000/svg" xmlns:xlink="http://www.w3.org/1999/xlink" x="0px" y="0px"
	 viewBox="0 0 128 128" style="enable-background:new 0 0 128 128;" xml:space="preserve">
<style type="text/css">
	.st0{display:none;opacity:0.28;}
	.st1{display:none;}
	.st2{fill:#FACD32;}
</style>
<g id="Layer_1_1_" class="st0">
	
		<image style="display:inline;overflow:visible;enable-background:new    ;" width="620" height="645" xlink:href="90818CF4.jpeg"  transform="matrix(0.1985 0 0 0.1985 2.4599 -4.718)">
	</image>
</g>
<g id="Layer_2_1_" class="st1">
</g>
<g id="Layer_4">
	<path class="st2" d="M26.6,63.4c0.3-4.4,4.6-7.7,9-7.4c4.4,0.3,7.7,4.1,7.4,8.5c0,0.1-0.5,8.3,1.6,15.4c2.2,5,7.3,10.1,13.2,8.7
		c2.8-0.7,5-2.4,6.8-4.7c1.3-1.9,2.4-4.1,3.2-6.2c2.5-6.9,3.3-15.3,4.1-20.3c0.7-4.2,1.4-8.3,2.2-12.5L78,19.6
		C69.7,14.6,64.9,7.8,63.6,3.7C31.4,3.9,5.4,30.1,5.4,62.3c0,32.4,26.2,58.6,58.6,58.6s58.6-26.2,58.6-58.6
		c0-13.8-4.8-26.5-12.8-36.5c-2.5,0.3-4.9,0.4-7.2,0.4c-3,0-5.9-0.2-8.5-0.7c-0.3,1.1-0.6,2.2-0.8,3.2c-1.1,5.6-2.1,11.3-3.2,16.9
		l-3.5,22.8c-1.6,13.3-10.2,37.4-31.3,37.4c-0.8,0-1.5,0-2.3-0.1c-13.2-1.1-20.9-10.5-24.2-22.6c-1.6-4.9-2.4-10.2-2.6-15.4
		C26.3,67.7,26.3,65.6,26.6,63.4z M99.8,95.5c-4.2,0-7.6-3.4-7.6-7.6s3.4-7.6,7.6-7.6s7.6,3.4,7.6,7.6S104,95.5,99.8,95.5z"/>
</g>
</svg>
